<?xml version="1.0" standalone="no"?>
<!DOCTYPE svg PUBLIC "-//W3C//DTD SVG 20010904//EN"
 "http://www.w3.org/TR/2001/REC-SVG-20010904/DTD/svg10.dtd">
<svg version="1.0" xmlns="http://www.w3.org/2000/svg"
 width="266.000000pt" height="266.000000pt" viewBox="0 0 266.000000 266.000000"
 preserveAspectRatio="xMidYMid meet">
<metadata>
Created by potrace 1.11, written by Peter Selinger 2001-2013
</metadata>
<g transform="translate(0.000000,266.000000) scale(0.100000,-0.100000)"
fill="#000000" stroke="none">
<path d="M1280 2221 c-118 -131 -384 -237 -616 -246 -80 -3 -228 16 -290 36
-17 5 -40 11 -50 13 -33 6 -187 68 -219 88 -33 20 -62 23 -84 9 -12 -7 -14
-30 -12 -98 1 -48 4 -99 6 -113 1 -14 6 -50 10 -80 13 -108 55 -254 100 -346
49 -101 132 -201 188 -226 27 -13 175 -15 1027 -14 l995 1 32 23 c115 82 200
235 248 448 31 138 49 374 30 404 -11 18 -42 11 -132 -29 -97 -42 -228 -85
-313 -102 -271 -53 -636 46 -808 220 -48 49 -77 52 -112 12z"/>
<path d="M317 1212 c-36 -4 -45 -25 -43 -96 1 -41 7 -62 18 -70 12 -9 266 -12
1043 -11 955 0 1027 1 1039 17 15 21 14 134 -2 150 -8 8 -293 11 -1019 12
-554 0 -1020 0 -1036 -2z"/>
<path d="M331 984 c-43 -31 9 -154 102 -240 86 -80 168 -130 337 -207 80 -37
234 -82 385 -113 17 -3 89 -7 160 -9 105 -2 151 1 240 20 285 58 575 198 707
342 68 75 104 175 73 206 -14 15 -104 16 -1000 15 -815 0 -988 -3 -1004 -14z"/>
</g>
</svg>
